<svg id="Layer_1" data-name="Layer 1" xmlns="http://www.w3.org/2000/svg" viewBox="0 0 122.88 47.38"><defs><style>.cls-1{fill-rule:evenodd;}</style></defs><title>bearded-dragon</title><path class="cls-1" d="M32.9,21.12a.7.7,0,0,1-.31-.95.71.71,0,0,1,.94-.31c1.13.57,2.25,1.1,3.38,1.59s2.27,1,3.41,1.39a69,69,0,0,0,6.89,2.21l.06,0a22.89,22.89,0,0,0,7,.89.71.71,0,1,1,.11,1.41,24.43,24.43,0,0,1-7.42-.93l-.06,0a68.54,68.54,0,0,1-7-2.26c-1.16-.44-2.32-.91-3.48-1.42s-2.31-1-3.45-1.62ZM58,21.06c1.49-3.57,4.67-2,6.3.44l1,1.65c.92.27,1.83.53,2.71.81,1.23.39,2.43.73,3.61,1a8.1,8.1,0,0,0-.43,1.79,6.19,6.19,0,0,0,0,1.88.7.7,0,1,0,1.38-.28,4.83,4.83,0,0,1,0-1.42A5.81,5.81,0,0,1,73,25.42c0-.05,0-.09,0-.13,2.32.5,4.57.85,6.8,1.19a3.82,3.82,0,0,0-.48,1.19,4.12,4.12,0,0,0,0,1.68.71.71,0,0,0,1.39-.26,2.76,2.76,0,0,1,0-1.11,2.68,2.68,0,0,1,.45-1,.63.63,0,0,0,.12-.31c2.41.36,4.8.74,7.21,1.29,0,0,0,0,0,.06l-.25,1.83a.71.71,0,0,0,1.4.18l.24-1.74.51.13c1.73.47,3.62.89,5.6,1.32l-.38,1.53a.71.71,0,0,0,1.37.34l.38-1.55h0c1,.21,1.91.43,2.88.67,5.84,1.41,8.31,2.66,14.66,2.64a47.19,47.19,0,0,0,7-.53c1,0,1.43.51.56,1-5.42,2.71-13.82,1.91-22.87.36l-8.39-1.64c-6.48-1.3-11.32.66-17.7.69a41.48,41.48,0,0,1-6.84-.53l-.06,0-1.86,4.5a5.18,5.18,0,0,1,1.73,5.17c-1-1.68-1.76-3.4-4.09-2.85a6.67,6.67,0,0,1-2.19,4.27c-1.76-.43,1.13-5.54-.65-4.73-1.08,1-2.42,3.57-3.36,3.39a6.61,6.61,0,0,1,2.06-3.94,6.39,6.39,0,0,1-3.61,1,10.91,10.91,0,0,1,5.22-2.78,1,1,0,0,0,.7-1.09c0-.35,0-.92,0-1.42l-.27.07A30.07,30.07,0,0,1,49,37c-6.08.24-13.44-1.49-19.7-4.24A15.12,15.12,0,0,1,21.87,43c-1.3.79-3.77,1.56-4.61,2.33A9.79,9.79,0,0,0,15.92,47a3.46,3.46,0,0,1-.35-2.72,29.09,29.09,0,0,1-6.1,3.1,5.59,5.59,0,0,1,1.43-3.1,6.57,6.57,0,0,1-4.14.45,17.31,17.31,0,0,1,9.34-3.42,34.27,34.27,0,0,0,5-4.78,7.41,7.41,0,0,0,1.7-3.25l-.14-4.08c-.66-.45-1.29-.92-1.89-1.42-2,4.91-8.8,4.75-13.08,7.75A3.43,3.43,0,0,1,8,33.47c-2.09,2.71-3.59,2.12-4.48,2.05.59-2.13-2.13-1.78-3.24-1.61.64-1.33,4.16-1.38,7.32-2.32,4.07-1.2,10-5.27,9.14-9.27L16.61,22l0-.07a1.86,1.86,0,0,0-.1-.25l.11.19c.26-1.06.62-1.57,1.12-1.71a4,4,0,0,1,2.29.45c.76.3,1.54.69,2.18,1l.85.42a.44.44,0,0,0,.37,0,.4.4,0,0,0,.18-.54c-.74-1.49-.91-2.1-.61-2.25a6.66,6.66,0,0,1,2.4,0l1.38.1a.41.41,0,0,0,.37-.19.42.42,0,0,0-.14-.56,4.73,4.73,0,0,1-1.21-1.07,3.07,3.07,0,0,1-.62-1.22.4.4,0,0,0-.49-.3.4.4,0,0,0-.3.48A3.88,3.88,0,0,0,25.21,18h0a5,5,0,0,0,.37.42H25.5a6.21,6.21,0,0,0-2.82.09c-.67.33-.75,1-.23,2.29-.62-.32-1.35-.68-2.08-1a4.65,4.65,0,0,0-2.81-.48c-.8.23-1.35.92-1.68,2.31a.41.41,0,0,0,.13.41c-.79,1.7-1.39,2.47-1.76,2.16a8.36,8.36,0,0,0-.18-4,4.07,4.07,0,0,1-2.29,2.26c1.15-3-.33-5.39-2.89-7.47-.76-.53-1.47-1.09-2.15-1.66l-.45-.4a24.26,24.26,0,0,0,8.5,2.87A48.42,48.42,0,0,1,4.15,10.87,29.58,29.58,0,0,1,.38,6.12,3.29,3.29,0,0,1,0,5.31L1.84,6.82a14.72,14.72,0,0,0,5.91,3.44C5.22,8.75,2.88,5.31.28,3.05a3.55,3.55,0,0,1,1.08-1c2-1.3,7.09-2.42,9.29-2,2.74.54,3.58,2.22,5.81,3.52,2,1.18,4.1,1.51,6.23,2.51,1.43.68,3,2.49,4.52,2.29a2.72,2.72,0,0,1-1.49,1.43l1,.72a5.22,5.22,0,0,0-1.35,1.19,1.79,1.79,0,0,0-.29,2,.7.7,0,0,0,1.27-.6.54.54,0,0,1,.14-.52,5.07,5.07,0,0,1,1.39-1.11l.13-.1a30.73,30.73,0,0,0,6.37,3,3.5,3.5,0,0,0-.36,1.12,5.28,5.28,0,0,0,0,1.38.7.7,0,0,0,1.4-.14,3.91,3.91,0,0,1,0-1,2,2,0,0,1,.27-.76l.06-.13c1.48.45,3,.81,4.58,1.18q2,.46,3.9,1a5.08,5.08,0,0,0-.37,1.45A5.55,5.55,0,0,0,44,20a.71.71,0,0,0,.83.55.7.7,0,0,0,.55-.83,3.79,3.79,0,0,1-.06-1.16,3.51,3.51,0,0,1,.29-1.11l0-.1c2.87.78,5.66,1.62,8.46,2.48a4.55,4.55,0,0,0-.39,1.52,5.46,5.46,0,0,0,.08,1.56.7.7,0,1,0,1.38-.27,4.13,4.13,0,0,1-.06-1.16,3.51,3.51,0,0,1,.29-1.11.93.93,0,0,0,0-.13l2.61.79ZM9.65,6.2A2.93,2.93,0,0,1,8.09,6c-.77-.37-1.78-1-.64-1.64C9.13,3.43,11.31,6,9.65,6.2Z"/></svg>